<!DOCTYPE svg PUBLIC "-//W3C//DTD SVG 1.1//EN" "http://www.w3.org/Graphics/SVG/1.1/DTD/svg11.dtd">
<!-- Uploaded to: SVG Repo, www.svgrepo.com, Transformed by: SVG Repo Mixer Tools -->
<svg width="800px" height="800px" viewBox="0 0 24 24" fill="none" xmlns="http://www.w3.org/2000/svg">
<g id="SVGRepo_bgCarrier" stroke-width="0"/>
<g id="SVGRepo_tracerCarrier" stroke-linecap="round" stroke-linejoin="round"/>
<g id="SVGRepo_iconCarrier"> <path d="M16 7C16 6.07003 16 5.60504 15.8978 5.22354C15.6204 4.18827 14.8117 3.37962 13.7765 3.10222C13.395 3 12.93 3 12 3C11.07 3 10.605 3 10.2235 3.10222C9.18827 3.37962 8.37962 4.18827 8.10222 5.22354C8 5.60504 8 6.07003 8 7M14 11.5C13.5 11.376 12.6851 11.3714 12 11.376M12 11.376C11.7709 11.3775 11.9094 11.3678 11.6 11.376C10.7926 11.4012 10.0016 11.7368 10 12.6875C9.99825 13.7004 11 14 12 14C13 14 14 14.2312 14 15.3125C14 16.1251 13.1925 16.4812 12.1861 16.5991C11.3861 16.5991 11 16.625 10 16.5M12 11.376L12 10M12 16.5995V18M7.8 21H16.2C17.8802 21 18.7202 21 19.362 20.673C19.9265 20.3854 20.3854 19.9265 20.673 19.362C21 18.7202 21 17.8802 21 16.2V11.8C21 10.1198 21 9.27976 20.673 8.63803C20.3854 8.07354 19.9265 7.6146 19.362 7.32698C18.7202 7 17.8802 7 16.2 7H7.8C6.11984 7 5.27976 7 4.63803 7.32698C4.07354 7.6146 3.6146 8.07354 3.32698 8.63803C3 9.27976 3 10.1198 3 11.8V16.2C3 17.8802 3 18.7202 3.32698 19.362C3.6146 19.9265 4.07354 20.3854 4.63803 20.673C5.27976 21 6.11984 21 7.8 21Z" stroke="#2cf529" stroke-width="2" stroke-linecap="round" stroke-linejoin="round"/> </g>
</svg>